<svg xmlns="http://www.w3.org/2000/svg" version="1.1" xmlns:xlink="http://www.w3.org/1999/xlink" xmlns:svgjs="http://svgjs.dev/svgjs" width="2000" height="262" viewBox="0 0 2000 262"><g transform="matrix(1,0,0,1,-1.2121212121212466,0.0320713281865892)"><svg viewBox="0 0 396 52" data-background-color="#ffffff" preserveAspectRatio="xMidYMid meet" height="262" width="2000" xmlns="http://www.w3.org/2000/svg" xmlns:xlink="http://www.w3.org/1999/xlink"><g id="tight-bounds" transform="matrix(1,0,0,1,0.2400000000000091,-0.006365301777492505)"><svg viewBox="0 0 395.52 52.01273060355498" height="52.01273060355498" width="395.52"><g><svg viewBox="0 0 395.52 52.01273060355498" height="52.01273060355498" width="395.52"><g><svg viewBox="0 0 395.52 52.01273060355498" height="52.01273060355498" width="395.52"><g><svg viewBox="0 0 395.52 52.01273060355498" height="52.01273060355498" width="395.52"><g id="textblocktransform"><svg viewBox="0 0 395.52 52.01273060355498" height="52.01273060355498" width="395.52" id="textblock"><g><svg viewBox="0 0 395.52 52.01273060355498" height="52.01273060355498" width="395.52"><g transform="matrix(1,0,0,1,0,0)"><svg width="395.52" viewBox="0.94 -36.36 358.43 47.16" height="52.01273060355498" data-palette-color="#008b8b"><g class="wordmark-text-0" data-fill-palette-color="primary" id="text-0"><path d="M18.84 0L11.35 0 0.94-36.36 9.34-36.36 15.36-11.1 15.66-11.1 22.3-36.36 29.49-36.36 36.12-11.04 36.43-11.04 42.45-36.36 50.85-36.36 40.45 0 32.95 0 26.03-23.77 25.75-23.77 18.84 0ZM67.13 0.53L67.13 0.53Q62.99 0.53 59.99-1.23 56.98-3 55.34-6.17 53.71-9.34 53.71-13.53L53.71-13.53Q53.71-17.76 55.34-20.93 56.98-24.09 59.99-25.86 62.99-27.63 67.13-27.63L67.13-27.63Q71.27-27.63 74.28-25.86 77.29-24.09 78.92-20.93 80.56-17.76 80.56-13.53L80.56-13.53Q80.56-9.34 78.92-6.17 77.29-3 74.28-1.23 71.27 0.53 67.13 0.53ZM67.17-5.33L67.17-5.33Q69.05-5.33 70.31-6.4 71.57-7.48 72.22-9.34 72.87-11.2 72.87-13.58L72.87-13.58Q72.87-15.96 72.22-17.83 71.57-19.69 70.31-20.77 69.05-21.86 67.17-21.86L67.17-21.86Q65.27-21.86 63.98-20.77 62.69-19.69 62.04-17.83 61.4-15.96 61.4-13.58L61.4-13.58Q61.4-11.2 62.04-9.34 62.69-7.48 63.98-6.4 65.27-5.33 67.17-5.33ZM93.05 0L85.49 0 85.49-27.27 92.82-27.27 92.82-22.51 93.11-22.51Q93.85-25.05 95.61-26.36 97.37-27.66 99.66-27.66L99.66-27.66Q100.23-27.66 100.88-27.59 101.54-27.52 102.04-27.4L102.04-27.4 102.04-20.69Q101.5-20.85 100.56-20.97 99.62-21.09 98.84-21.09L98.84-21.09Q97.17-21.09 95.87-20.37 94.56-19.66 93.81-18.38 93.05-17.1 93.05-15.43L93.05-15.43 93.05 0ZM117.78-13.57L112.78-7.85 112.79-16.92 113.9-16.92 122.63-27.27 131.31-27.27 119.58-13.57 117.78-13.57ZM113.49 0L105.92 0 105.92-36.36 113.49-36.36 113.49 0ZM131.83 0L122.97 0 114.94-11.88 119.99-17.22 131.83 0Z" fill="#008b8b" data-fill-palette-color="primary"></path><path d="M146.58 0L146.58-36.36 156.06-36.36 166.08-11.93 166.5-11.93 176.52-36.36 186-36.36 186 0 178.54 0 178.54-23.67 178.24-23.67 168.83-0.18 163.75-0.18 154.34-23.76 154.04-23.76 154.04 0 146.58 0ZM199.95 0.51L199.95 0.51Q197.34 0.51 195.3-0.4 193.26-1.31 192.08-3.12 190.9-4.92 190.9-7.62L190.9-7.62Q190.9-9.89 191.73-11.43 192.57-12.98 194.01-13.92 195.44-14.86 197.28-15.34 199.12-15.82 201.14-16.02L201.14-16.02Q203.52-16.26 204.98-16.49 206.43-16.71 207.09-17.15 207.75-17.6 207.75-18.47L207.75-18.47 207.75-18.57Q207.75-20.26 206.69-21.18 205.64-22.11 203.7-22.11L203.7-22.11Q201.66-22.11 200.45-21.21 199.24-20.31 198.85-18.96L198.85-18.96 191.86-19.53Q192.39-22.02 193.95-23.84 195.51-25.66 197.99-26.64 200.47-27.63 203.74-27.63L203.74-27.63Q206.01-27.63 208.09-27.1 210.18-26.56 211.81-25.44 213.43-24.33 214.37-22.58 215.31-20.83 215.31-18.39L215.31-18.39 215.31 0 208.14 0 208.14-3.78 207.93-3.78Q207.27-2.5 206.17-1.54 205.07-0.57 203.52-0.03 201.98 0.51 199.95 0.51ZM202.12-4.71L202.12-4.71Q203.79-4.71 205.07-5.37 206.35-6.04 207.07-7.17 207.8-8.31 207.8-9.75L207.8-9.75 207.8-12.64Q207.45-12.41 206.83-12.22 206.22-12.04 205.46-11.89 204.69-11.74 203.93-11.62 203.17-11.51 202.55-11.42L202.55-11.42Q201.21-11.22 200.22-10.8 199.23-10.37 198.68-9.65 198.12-8.93 198.12-7.87L198.12-7.87Q198.12-6.32 199.25-5.51 200.38-4.71 202.12-4.71ZM228.75-15.77L228.75-15.77 228.75 0 221.19 0 221.19-27.27 228.4-27.27 228.4-22.46 228.72-22.46Q229.62-24.84 231.75-26.23 233.88-27.63 236.92-27.63L236.92-27.63Q239.76-27.63 241.87-26.38 243.99-25.14 245.16-22.84 246.33-20.54 246.33-17.37L246.33-17.37 246.33 0 238.76 0 238.76-16.02Q238.78-18.52 237.49-19.93 236.19-21.34 233.92-21.34L233.92-21.34Q232.39-21.34 231.23-20.69 230.06-20.03 229.42-18.78 228.77-17.52 228.75-15.77ZM260.05 0.51L260.05 0.51Q257.44 0.51 255.4-0.4 253.36-1.31 252.18-3.12 251-4.92 251-7.62L251-7.62Q251-9.89 251.83-11.43 252.67-12.98 254.1-13.92 255.54-14.86 257.38-15.34 259.22-15.82 261.24-16.02L261.24-16.02Q263.62-16.26 265.08-16.49 266.53-16.71 267.19-17.15 267.85-17.6 267.85-18.47L267.85-18.47 267.85-18.57Q267.85-20.26 266.79-21.18 265.73-22.11 263.8-22.11L263.8-22.11Q261.76-22.11 260.55-21.21 259.34-20.31 258.95-18.96L258.95-18.96 251.95-19.53Q252.49-22.02 254.05-23.84 255.61-25.66 258.09-26.64 260.57-27.63 263.83-27.63L263.83-27.63Q266.11-27.63 268.19-27.1 270.28-26.56 271.9-25.44 273.53-24.33 274.47-22.58 275.41-20.83 275.41-18.39L275.41-18.39 275.41 0 268.24 0 268.24-3.78 268.02-3.78Q267.37-2.5 266.27-1.54 265.17-0.57 263.62-0.03 262.08 0.51 260.05 0.51ZM262.22-4.71L262.22-4.71Q263.89-4.71 265.17-5.37 266.44-6.04 267.17-7.17 267.9-8.31 267.9-9.75L267.9-9.75 267.9-12.64Q267.54-12.41 266.93-12.22 266.32-12.04 265.56-11.89 264.79-11.74 264.03-11.62 263.27-11.51 262.64-11.42L262.64-11.42Q261.31-11.22 260.32-10.8 259.32-10.37 258.77-9.65 258.22-8.93 258.22-7.87L258.22-7.87Q258.22-6.32 259.35-5.51 260.48-4.71 262.22-4.71ZM293.57 10.8L293.57 10.8Q289.9 10.8 287.28 9.79 284.66 8.79 283.11 7.07 281.57 5.34 281.11 3.2L281.11 3.2 288.1 2.25Q288.42 3.07 289.12 3.78 289.81 4.49 290.95 4.93 292.1 5.36 293.75 5.36L293.75 5.36Q296.22 5.36 297.82 4.16 299.43 2.97 299.43 0.16L299.43 0.16 299.43-4.83 299.11-4.83Q298.61-3.69 297.62-2.68 296.63-1.67 295.06-1.03 293.5-0.39 291.33-0.39L291.33-0.39Q288.26-0.39 285.75-1.82 283.24-3.25 281.76-6.21 280.27-9.16 280.27-13.69L280.27-13.69Q280.27-18.32 281.78-21.43 283.29-24.54 285.8-26.08 288.32-27.63 291.32-27.63L291.32-27.63Q293.61-27.63 295.15-26.86 296.7-26.08 297.65-24.94 298.6-23.79 299.11-22.69L299.11-22.69 299.4-22.69 299.4-27.27 306.91-27.27 306.91 0.27Q306.91 3.75 305.2 6.09 303.5 8.43 300.49 9.61 297.48 10.8 293.57 10.8ZM293.73-6.07L293.73-6.07Q295.56-6.07 296.83-6.99 298.1-7.9 298.78-9.61 299.47-11.33 299.47-13.73L299.47-13.73Q299.47-16.12 298.79-17.89 298.12-19.66 296.84-20.63 295.56-21.61 293.73-21.61L293.73-21.61Q291.87-21.61 290.59-20.61 289.31-19.6 288.65-17.83 288-16.05 288-13.73L288-13.73Q288-11.36 288.66-9.65 289.33-7.94 290.6-7 291.87-6.07 293.73-6.07ZM325.37 0.53L325.37 0.53Q321.16 0.53 318.13-1.18 315.11-2.89 313.47-6.05 311.84-9.2 311.84-13.51L311.84-13.51Q311.84-17.72 313.47-20.9 315.11-24.08 318.08-25.85 321.06-27.63 325.07-27.63L325.07-27.63Q327.77-27.63 330.1-26.77 332.44-25.91 334.19-24.18 335.93-22.46 336.91-19.86 337.89-17.26 337.89-13.78L337.89-13.78 337.89-11.7 314.86-11.7 314.86-16.39 330.77-16.39Q330.77-18.02 330.06-19.28 329.35-20.54 328.1-21.26 326.84-21.98 325.19-21.98L325.19-21.98Q323.47-21.98 322.15-21.19 320.82-20.4 320.08-19.08 319.33-17.76 319.32-16.14L319.32-16.14 319.32-11.68Q319.32-9.66 320.07-8.19 320.82-6.71 322.21-5.91 323.59-5.11 325.49-5.11L325.49-5.11Q326.75-5.11 327.8-5.47 328.85-5.82 329.6-6.53 330.34-7.24 330.73-8.27L330.73-8.27 337.73-7.81Q337.19-5.29 335.55-3.42 333.91-1.54 331.33-0.51 328.74 0.53 325.37 0.53ZM350.38 0L342.82 0 342.82-27.27 350.15-27.27 350.15-22.51 350.44-22.51Q351.18-25.05 352.94-26.36 354.7-27.66 356.99-27.66L356.99-27.66Q357.56-27.66 358.22-27.59 358.87-27.52 359.37-27.4L359.37-27.4 359.37-20.69Q358.84-20.85 357.9-20.97 356.95-21.09 356.17-21.09L356.17-21.09Q354.5-21.09 353.2-20.37 351.89-19.66 351.14-18.38 350.38-17.1 350.38-15.43L350.38-15.43 350.38 0Z" fill="#1c1b1b" data-fill-palette-color="secondary"></path></g></svg></g></svg></g></svg></g></svg></g></svg></g></svg></g><defs></defs></svg><rect width="395.52" height="52.01273060355498" fill="none" stroke="none" visibility="hidden"></rect></g></svg></g></svg>